<?xml version="1.0" encoding="iso-8859-1"?>
<!-- Generator: Adobe Illustrator 19.0.0, SVG Export Plug-In . SVG Version: 6.00 Build 0)  -->
<svg version="1.1" id="Layer_1" xmlns="http://www.w3.org/2000/svg" xmlns:xlink="http://www.w3.org/1999/xlink" x="0px" y="0px"
	 viewBox="0 0 512.002 512.002" style="enable-background:new 0 0 512.002 512.002;" xml:space="preserve">
<path style="fill:#E6E6E6;" d="M472.107,264.273l-83.69-13.776l-25.375-61.627c-5.146-12.481-17.318-20.642-30.819-20.642H199.076
	c-8.413,0-16.733,0.619-24.917,1.822c-33.834,4.963-65.284,19.943-90.384,42.751l-41.662,55.897
	c-11.266,21.318-19.163,43.564-19.163,64.034v66.567h29.146c0-9.616,2.395-18.67,6.613-26.613h100.493
	c0.287,0.539,0.562,1.089,0.837,1.639c3.691,7.542,5.776,16.011,5.776,24.974h167.553c0-8.963,2.074-17.433,5.776-24.974
	c9.238-18.877,28.642-31.885,51.083-31.885c31.404,0,56.859,25.467,56.859,56.859h44.16v-112.47
	C491.247,275.654,483.144,266.107,472.107,264.273z"/>
<path style="fill:#CCCCCC;" d="M472.107,264.273l-83.69-13.776l-25.375-61.627c-5.146-12.481-17.318-20.642-30.819-20.642h-29.696
	h-13.281c13.501,0,25.673,8.16,30.819,20.642l25.375,61.627l83.69,13.776c11.037,1.834,19.14,11.381,19.14,22.556v9.639v43.553
	v31.461v27.817h42.978v-27.817v-31.461v-43.553v-9.639C491.247,275.654,483.144,266.107,472.107,264.273z"/>
<path style="fill:#F2F2F2;" d="M79.539,371.482v-38.751c0-10.235,1.975-20.915,5.357-31.699
	c5.12-16.325,13.227-31.559,23.452-45.277l17.771-23.842c18.41-24.701,43.568-43.726,72.626-53.96
	c10.328-3.637,21.041-6.297,32.003-7.905c8.183-1.203,16.504-1.822,24.917-1.822h-56.59c-8.413,0-16.733,0.619-24.917,1.822
	c-33.834,4.963-65.284,19.943-90.384,42.751l-41.662,55.897c-11.266,21.318-19.163,43.564-19.163,64.034v38.751v27.817h29.146
	c0-9.616,2.395-18.67,6.613-26.613h20.831V371.482z"/>
<path style="fill:#FED159;" d="M491.247,296.468v43.553h-21.776c-6.006,0-11.461-2.441-15.393-6.372
	c-3.943-3.943-6.384-9.387-6.384-15.404c0-12.023,9.754-21.776,21.776-21.776H491.247z"/>
<g>
	<path style="fill:#72C5D5;" d="M365.815,268.697h-231.85v-12.963c0-26.774,17.627-49.433,41.914-56.997
		c5.123-1.593,10.533-2.51,16.149-2.648c0.539-0.023,1.077-0.034,1.616-0.034H321.54c8.699,0,16.527,5.249,19.839,13.284
		L365.815,268.697z"/>
	<path style="fill:#72C5D5;" d="M94.812,239.609c5.719,13.868-4.481,29.089-19.473,29.089H42.113
		c3.851-7.278,8.092-14.453,12.539-21.41c8.252-12.883,18.074-24.447,29.123-34.487L94.812,239.609z"/>
</g>
<g>
	<path style="fill:#FED159;" d="M365.597,114.864l-4.309,6.132c-7.885,11.244-20.756,17.937-34.487,17.937h-24.275v-24.069H365.597z
		"/>
	<rect x="174.154" y="114.867" style="fill:#FED159;" width="128.367" height="24.069"/>
	<path style="fill:#FED159;" d="M174.159,114.864v24.069h-25.925c-13.731,0-26.602-6.693-34.487-17.937l-4.298-6.132H174.159z"/>
</g>
<g>
	<path style="fill:#EE4948;" d="M365.597,114.864h-63.071v-46.12h16.951c12.733,0,24.264,5.158,32.607,13.501
		C360.428,90.589,365.597,102.119,365.597,114.864z"/>
	<rect x="174.154" y="68.744" style="fill:#EE4948;" width="128.367" height="46.12"/>
	<path style="fill:#EE4948;" d="M109.448,114.864c0-25.478,20.653-46.12,46.12-46.12h18.59v46.12H109.448z"/>
</g>
<g>
	<path style="fill:#CCCCCC;" d="M390.227,372.926c14.567,0,26.384,11.805,26.384,26.372c0,14.579-11.817,26.384-26.384,26.384
		s-26.384-11.805-26.384-26.384C363.843,384.732,375.66,372.926,390.227,372.926z"/>
	<path style="fill:#CCCCCC;" d="M108.956,372.926c14.567,0,26.372,11.805,26.372,26.372c0,14.579-11.805,26.384-26.372,26.384
		c-14.579,0-26.384-11.805-26.384-26.384C82.572,384.732,94.377,372.926,108.956,372.926z"/>
</g>
<path style="fill:#666666;" d="M390.227,342.439c31.404,0,56.859,25.467,56.859,56.859c0,31.404-25.456,56.871-56.859,56.871
	s-56.859-25.467-56.859-56.871C333.368,367.906,358.823,342.439,390.227,342.439z M416.611,399.299
	c0-14.567-11.817-26.372-26.384-26.372s-26.384,11.805-26.384,26.372c0,14.579,11.817,26.384,26.384,26.384
	C404.794,425.683,416.611,413.878,416.611,399.299z"/>
<path style="fill:#CCCCCC;" d="M339.144,374.325c-3.702,7.542-5.777,16.011-5.777,24.974H165.815c0-8.963-2.086-17.433-5.776-24.974
	H339.144z"/>
<path style="fill:#666666;" d="M108.956,372.926c-14.579,0-26.384,11.805-26.384,26.372c0,14.579,11.805,26.384,26.384,26.384
	c14.567,0,26.372-11.805,26.372-26.384C135.328,384.732,123.523,372.926,108.956,372.926z M58.709,372.686h100.493
	c4.218,7.943,6.613,16.997,6.613,26.613c0,31.404-25.456,56.871-56.859,56.871s-56.859-25.467-56.859-56.871
	C52.096,389.683,54.492,380.628,58.709,372.686z"/>
<g>
	<path style="fill:#A2E4ED;" d="M335.855,201.534l-24.963,67.163h-80.848l26.991-72.642h64.504
		C326.938,196.056,332.004,198.073,335.855,201.534z"/>
	<path style="fill:#A2E4ED;" d="M205.208,201.534l-24.963,67.163h-46.281v-12.963c0-26.774,17.627-49.433,41.914-56.997
		c5.123-1.593,10.533-2.51,16.149-2.648C197.001,196.342,201.632,198.314,205.208,201.534z"/>
</g>
<path d="M349.379,206.486c-4.658-11.301-15.564-18.604-27.786-18.604H193.696c-6.913,0-13.748,1.033-20.321,3.072
	c-28.682,8.934-47.953,35.137-47.953,65.204v12.963c0,4.747,3.848,8.596,8.596,8.596h231.85c2.868,0,5.546-1.43,7.142-3.813
	c1.597-2.383,1.898-5.404,0.807-8.055L349.379,206.486z M142.614,256.156c0-18.333,9.574-34.744,24.721-43.807v16.449
	c0,4.747,3.848,8.596,8.596,8.596c4.748,0,8.596-3.849,8.596-8.596v-22.9c3.013-0.544,6.079-0.825,9.169-0.825h61.891v55.45h-71.06
	v-5.364c0-4.747-3.848-8.596-8.596-8.596c-4.748,0-8.596,3.849-8.596,8.596v5.364h-24.721V256.156z M272.779,260.523v-55.45h48.815
	c5.23,0,9.898,3.127,11.89,7.96l19.551,47.49H272.779z"/>
<path d="M408.905,379.164c-4.117,2.363-5.539,7.617-3.176,11.734c1.531,2.668,2.34,5.719,2.34,8.824
	c0,9.809-7.979,17.788-17.788,17.788c-9.809,0-17.789-7.981-17.789-17.789c0-9.802,7.981-17.776,17.789-17.776
	c4.748,0,8.596-3.849,8.596-8.596c0-4.747-3.848-8.596-8.596-8.596c-19.288,0-34.981,15.687-34.981,34.968
	c0,19.288,15.692,34.98,34.981,34.98c19.287,0,34.98-15.692,34.98-34.98c0-6.102-1.599-12.112-4.621-17.381
	C418.274,378.223,413.021,376.8,408.905,379.164z"/>
<path d="M503.404,363.308h-3.508v-76.057c0-15.449-11.073-28.501-26.34-31.038l-78.961-12.998l-23.553-57.201
	c-6.503-15.771-21.719-25.961-38.767-25.961h-21.1v-12.103h15.68c16.517,0,32.04-8.073,41.521-21.59l4.309-6.132
	c1.017-1.448,1.562-3.174,1.562-4.943c0-14.618-5.694-28.361-16.031-38.698c-10.33-10.33-24.069-16.018-38.685-16.018h-8.355v-5.158
	c0-4.747-3.848-8.596-8.596-8.596s-8.596,3.849-8.596,8.596v5.158H182.809v-5.158c0-4.747-3.848-8.596-8.596-8.596
	c-4.748,0-8.596,3.849-8.596,8.596v5.158h-9.994c-30.171,0-54.716,24.546-54.716,54.716c0,1.766,0.544,3.488,1.556,4.934
	l4.299,6.134c9.484,13.523,25.007,21.598,41.524,21.598h17.329v15.261c-32.68,6.172-62.824,21.164-87.568,43.649
	c-11.724,10.652-22.013,22.835-30.586,36.219c-4.789,7.491-9.127,14.9-12.896,22.023c-13.376,25.311-20.159,48.206-20.159,68.051
	v30.155H8.596c-4.748,0-8.596,3.849-8.596,8.596c0,4.747,3.848,8.596,8.596,8.596h5.811v19.221c0,4.747,3.848,8.596,8.596,8.596
	h21.132c4.225,32.048,31.696,56.871,64.874,56.871s60.65-24.823,64.874-56.871h151.524c4.225,32.048,31.696,56.871,64.874,56.871
	c33.177,0,60.649-24.823,64.873-56.871h36.147c4.748,0,8.596-3.849,8.596-8.596V380.5h3.508c4.748,0,8.596-3.849,8.596-8.596
	C512.002,367.157,508.151,363.308,503.404,363.308z M469.523,331.847c-3.52,0-6.827-1.368-9.315-3.856
	c-2.493-2.493-3.866-5.804-3.866-9.325c0-7.268,5.913-13.18,13.18-13.18h13.18v26.361H469.523z M311.174,130.758v-6.877h36.008
	c-5.771,4.399-12.896,6.877-20.329,6.877H311.174z M319.529,77.761c10.024,0,19.446,3.9,26.529,10.983
	c5.017,5.015,8.429,11.205,10.002,17.944h-44.887V77.76h8.355V77.761z M293.982,77.761v28.928h-18.499
	c-4.748,0-8.596,3.849-8.596,8.596c0,4.747,3.848,8.596,8.596,8.596h18.499v6.877H182.808v-6.877h67.461
	c4.748,0,8.596-3.849,8.596-8.596c0-4.747-3.848-8.596-8.596-8.596h-67.461V77.761H293.982z M155.621,77.761h9.994v28.928h-46.515
	C122.998,90.129,137.889,77.761,155.621,77.761z M148.286,130.758c-7.433,0-14.558-2.478-20.329-6.877h37.658v6.877H148.286z
	 M293.982,147.95v12.103h-94.854c-5.432,0-10.889,0.279-16.321,0.774V147.95H293.982z M80.744,228.31l6.175,14.998
	c1.613,3.911,1.189,8.167-1.163,11.681c-2.355,3.517-6.132,5.535-10.363,5.535H56.902c1.618-2.707,3.287-5.431,5.042-8.178
	C67.452,243.747,73.758,235.707,80.744,228.31z M109.008,447.996c-26.613,0-48.264-21.656-48.264-48.275
	c0-6.273,1.168-12.313,3.479-18.017h14.818c-3.179,5.265-5.013,11.43-5.013,18.017c0,19.288,15.692,34.98,34.98,34.98
	c19.281,0,34.968-15.692,34.968-34.98c0-6.587-1.833-12.752-5.011-18.017h14.829c2.312,5.704,3.479,11.744,3.479,18.017
	C157.273,426.339,135.621,447.996,109.008,447.996z M126.785,399.721c0,9.809-7.975,17.788-17.776,17.788
	c-9.809,0-17.788-7.979-17.788-17.788c0-9.802,7.979-17.776,17.788-17.776C118.81,381.944,126.785,389.919,126.785,399.721z
	 M390.281,447.996c-26.613,0-48.263-21.656-48.263-48.275c0-26.612,21.652-48.263,48.263-48.263s48.262,21.651,48.262,48.263
	C438.543,426.339,416.892,447.996,390.281,447.996z M482.704,391.125h-27.551c-4.225-32.042-31.696-56.859-64.872-56.859
	c-33.178,0-60.649,24.817-64.873,56.859h-151.53c-1.023-7.697-3.393-15.197-7.032-22.048c-1.492-2.809-4.413-4.564-7.592-4.564
	H58.762c-3.179,0-6.1,1.756-7.592,4.564c-3.639,6.852-6.008,14.351-7.032,22.048h-12.54V380.5h1.192
	c4.748,0,8.596-3.849,8.596-8.596s-3.848-8.596-8.596-8.596h-1.192v-21.559h10.854c4.748,0,8.596-3.849,8.596-8.596
	c0-4.747-3.848-8.596-8.596-8.596H32.104c1.532-13.876,6.653-29.571,15.308-46.842h27.98c9.917,0,19.132-4.92,24.65-13.163
	c5.516-8.24,6.551-18.631,2.772-27.794l-8.696-21.121c23.209-19.6,51.207-32.239,81.343-36.66
	c7.811-1.148,15.774-1.731,23.666-1.731h133.146c10.056,0,19.035,6.015,22.871,15.318l25.375,61.627
	c1.135,2.754,3.614,4.725,6.554,5.209l83.677,13.774c6.927,1.151,11.954,7.07,11.954,14.077v1.043h-13.18
	c-16.747,0-30.372,13.625-30.372,30.372c0,8.113,3.162,15.742,8.902,21.482c5.733,5.733,13.358,8.891,21.47,8.891h13.18v14.269
	h-14.384c-4.748,0-8.596,3.849-8.596,8.596s3.848,8.596,8.596,8.596h14.384v10.623H482.704z"/>
<g>
</g>
<g>
</g>
<g>
</g>
<g>
</g>
<g>
</g>
<g>
</g>
<g>
</g>
<g>
</g>
<g>
</g>
<g>
</g>
<g>
</g>
<g>
</g>
<g>
</g>
<g>
</g>
<g>
</g>
</svg>
